<!--?xml version="1.0" standalone="no"?-->
              <svg id="sw-js-blob-svg" viewBox="0 0 100 100" xmlns="http://www.w3.org/2000/svg" version="1.1">
                    <defs> 
                        <linearGradient id="sw-gradient" x1="0" x2="1" y1="1" y2="0">
                            <stop id="stop1" stop-color="rgba(100,255,218,1)" offset="0%"></stop>
                            <stop id="stop2" stop-color="rgba(100,255,218,1)" offset="100%"></stop>
                        </linearGradient>
                    </defs>
                <path fill="url(#sw-gradient)" d="M19.4,-33.9C25.3,-30.2,30.5,-25.4,34.4,-19.5C38.4,-13.7,41.2,-6.9,41.2,0C41.1,6.8,38.2,13.6,34.5,19.9C30.8,26.2,26.4,32.1,20.5,35.8C14.6,39.4,7.3,40.7,0.5,39.8C-6.3,38.9,-12.6,35.8,-19.2,32.6C-25.9,29.5,-32.9,26.3,-37.4,20.8C-41.9,15.4,-43.9,7.7,-43.7,0.1C-43.4,-7.4,-41,-14.9,-37.5,-22.1C-34.1,-29.3,-29.5,-36.3,-23.1,-39.7C-16.6,-43.2,-8.3,-43.1,-0.8,-41.7C6.7,-40.3,13.5,-37.7,19.4,-33.9Z" width="100%" height="100%" transform="translate(50 50)" stroke-width="0" style="transition: all 0.3s ease 0s;"></path>
              </svg>